<?xml version="1.0" encoding="utf-8"?>
<!-- Generator: Adobe Illustrator 16.0.0, SVG Export Plug-In . SVG Version: 6.00 Build 0)  -->
<!DOCTYPE svg PUBLIC "-//W3C//DTD SVG 1.1//EN" "http://www.w3.org/Graphics/SVG/1.1/DTD/svg11.dtd">
<svg version="1.1" id="Layer_1" xmlns="http://www.w3.org/2000/svg" xmlns:xlink="http://www.w3.org/1999/xlink" x="0px" y="0px"
	 width="70.75px" height="49.25px" viewBox="17.25 19 70.75 49.25" enable-background="new 17.25 19 70.75 49.25"
	 xml:space="preserve">
<g id="Layer_1_1_">
	<g id="Layer_2">
	</g>
</g>
<g id="Layer_3">
	<rect x="0" fill="none" width="100" height="100"/>
	<g>
		<g id="arrow">
			<g>
				<defs>
					<rect id="SVGID_1_" x="0" width="100" height="100"/>
				</defs>
				<clipPath id="SVGID_2_">
					<use xlink:href="#SVGID_1_"  overflow="visible"/>
				</clipPath>
				<polygon clip-path="url(#SVGID_2_)" fill="#073B4C" points="81,68.083 81,55.959 67,55.959 				"/>
			</g>
		</g>
		<g>
			<path fill="#073B4C" d="M88,26v27c0,3.85-3.15,7-7,7H54c-3.851,0-7-3.15-7-7V26c0-3.85,3.149-7,7-7h27C84.85,19,88,22.15,88,26"
				/>
			<path fill="#EBB035" d="M73.696,35.185c3.424,3.389,3.424,8.884,0,12.273c-3.422,3.39-8.971,3.39-12.393,0
				c-3.423-3.389-3.423-8.884,0-12.273C64.726,31.795,70.274,31.795,73.696,35.185"/>
			<path fill="#EBB035" d="M75.769,43.619l6.035,1.56l1.307-1.04l-7.342-1.281V43.619z M75.769,40.381l8.179-0.903L86,41.3
				l-2.054,1.799l-8.179-0.908L75.769,40.381L75.769,40.381z M75.769,38.952l6.035-1.488l1.307,1.056l-7.342,1.195V38.952z"/>
			<path fill="#EBB035" d="M59.231,39.023l-6.035-1.559l-1.307,1.039l7.342,1.281V39.023z M59.231,42.261l-8.179,0.904L49,41.342
				l2.052-1.798l8.179,0.907V42.261z M59.231,43.69l-6.035,1.488l-1.307-1.056l7.342-1.194V43.69z"/>
			<rect x="48" y="42" fill="#073B4C" width="39" height="14"/>
			<path fill="#EBB035" d="M69.82,33.132l1.574-5.976l-1.049-1.295l-1.294,7.271H69.82z M66.551,33.132l-0.912-8.1L67.479,23
				l1.815,2.032l-0.916,8.1H66.551z M65.107,33.132l-1.502-5.976l1.066-1.295l1.206,7.271H65.107z"/>
			<path fill="#EBB035" d="M63.294,33.906l-3.154-5.328l-1.666-0.181l4.276,6.047L63.294,33.906z M60.981,36.195l-6.428-5.088
				l-0.15-2.726l2.736,0.165l5.135,6.369L60.981,36.195z M59.962,37.206l-5.33-3.174l-0.17-1.661l6.044,4.296L59.962,37.206z"/>
			<path fill="#EBB035" d="M74.988,37.155l5.381-3.123l0.183-1.65l-6.106,4.235L74.988,37.155z M72.677,34.867l5.137-6.366
				l2.753-0.149L80.4,31.061l-6.431,5.086L72.677,34.867z M71.655,33.855l3.205-5.278l1.679-0.168L72.2,34.396L71.655,33.855z"/>
		</g>
		<g>
			<path fill="#FFFFFF" d="M49.917,53.62c-0.79-0.704-1.186-1.628-1.186-2.772h2.889c0,0.396,0.133,0.717,0.397,0.957
				c0.267,0.242,0.614,0.363,1.045,0.363h1.939c0.86,0,1.293-0.242,1.293-0.727v-0.373c0-0.146-0.072-0.282-0.216-0.407
				c-0.145-0.125-0.338-0.209-0.582-0.253l-3.729-0.66c-0.876-0.146-1.568-0.465-2.079-0.957c-0.51-0.491-0.765-1.067-0.765-1.727
				v-0.726c0-0.938,0.377-1.672,1.131-2.2c0.754-0.528,1.807-0.792,3.157-0.792h1.681c1.206,0,2.181,0.326,2.919,0.979
				c0.74,0.652,1.11,1.514,1.11,2.585h-2.888c0-0.323-0.104-0.58-0.313-0.77s-0.484-0.286-0.829-0.286h-1.638
				c-0.936,0-1.4,0.22-1.4,0.66v0.352c0,0.161,0.062,0.297,0.184,0.407s0.298,0.187,0.527,0.231l3.921,0.726
				c0.819,0.147,1.479,0.458,1.982,0.935s0.755,1.016,0.755,1.617v0.792c0,0.953-0.385,1.709-1.153,2.266
				c-0.769,0.559-1.792,0.836-3.069,0.836h-1.939C51.756,54.676,50.708,54.324,49.917,53.62z"/>
			<path fill="#FFFFFF" d="M74.848,44.435c0.661,0.726,0.991,1.676,0.991,2.849V54.5h-2.931v-7.216c0-0.411-0.094-0.737-0.279-0.979
				c-0.188-0.242-0.433-0.363-0.733-0.363H70.97c-0.402,0-0.755,0.151-1.056,0.451c-0.303,0.301-0.489,0.701-0.562,1.199V54.5
				h-2.931v-7.194c0-0.411-0.094-0.741-0.28-0.99s-0.431-0.374-0.731-0.374H64.57c-0.417,0-0.782,0.191-1.1,0.572
				c-0.315,0.381-0.517,0.88-0.604,1.496v6.49h-2.931V43.522h2.715v1.276c0.26-0.44,0.594-0.792,1.002-1.056
				c0.409-0.264,0.822-0.396,1.239-0.396H66.1c0.519,0,0.987,0.139,1.411,0.418c0.424,0.279,0.758,0.667,1.002,1.166
				c0.316-0.499,0.693-0.887,1.132-1.166c0.438-0.279,0.901-0.418,1.391-0.418h1.185C73.311,43.346,74.187,43.709,74.848,44.435z"/>
			<path fill="#FFFFFF" d="M77.735,53.62c-0.79-0.704-1.186-1.628-1.186-2.772h2.888c0,0.396,0.133,0.717,0.398,0.957
				c0.266,0.242,0.614,0.363,1.045,0.363h1.938c0.861,0,1.293-0.242,1.293-0.727v-0.373c0-0.146-0.072-0.282-0.216-0.407
				s-0.338-0.209-0.582-0.253l-3.728-0.66c-0.876-0.146-1.569-0.465-2.079-0.957c-0.51-0.491-0.765-1.067-0.765-1.727v-0.726
				c0-0.938,0.377-1.672,1.131-2.2c0.754-0.528,1.807-0.792,3.156-0.792h1.682c1.206,0,2.18,0.326,2.919,0.979
				c0.739,0.652,1.109,1.514,1.109,2.585h-2.888c0-0.323-0.104-0.58-0.313-0.77s-0.483-0.286-0.828-0.286h-1.639
				c-0.935,0-1.399,0.22-1.399,0.66v0.352c0,0.161,0.061,0.297,0.183,0.407s0.298,0.187,0.528,0.231l3.921,0.726
				c0.818,0.147,1.479,0.458,1.981,0.935s0.755,1.016,0.755,1.617v0.792c0,0.953-0.385,1.709-1.152,2.266
				c-0.77,0.559-1.792,0.836-3.07,0.836h-1.938C79.573,54.676,78.525,54.324,77.735,53.62z"/>
		</g>
		<g>
			<g>
				<path fill="#073B4C" d="M32.16,44.435c0.66,0.726,0.99,1.676,0.99,2.849V54.5h-2.93v-7.216c0-0.411-0.094-0.737-0.28-0.979
					c-0.187-0.242-0.431-0.363-0.731-0.363h-0.927c-0.402,0-0.755,0.151-1.057,0.451c-0.302,0.301-0.488,0.701-0.56,1.199V54.5
					h-2.932v-7.194c0-0.411-0.093-0.741-0.279-0.99c-0.188-0.249-0.432-0.374-0.733-0.374h-0.84c-0.417,0-0.783,0.191-1.099,0.572
					c-0.316,0.381-0.519,0.88-0.604,1.496v6.49H17.25V43.522h2.715v1.276c0.258-0.44,0.592-0.792,1.002-1.056
					c0.409-0.264,0.822-0.396,1.239-0.396h1.207c0.517,0,0.987,0.139,1.412,0.418c0.423,0.279,0.757,0.667,1.002,1.166
					c0.314-0.499,0.692-0.887,1.131-1.166c0.438-0.279,0.9-0.418,1.39-0.418h1.186C30.623,43.346,31.5,43.709,32.16,44.435z"/>
				<path fill="#073B4C" d="M36.825,57.965c-0.755-0.667-1.175-1.544-1.261-2.629h2.888c0.028,0.322,0.157,0.583,0.388,0.781
					c0.229,0.197,0.517,0.297,0.862,0.297h1.767c0.445,0,0.808-0.188,1.088-0.563c0.28-0.373,0.42-0.86,0.42-1.463v-1.43
					c-0.331,0.455-0.708,0.811-1.131,1.066c-0.423,0.257-0.844,0.386-1.26,0.386h-1.422c-1.136,0-2.047-0.386-2.736-1.155
					s-1.034-1.793-1.034-3.069v-6.666h2.931v6.71c0,0.483,0.118,0.876,0.354,1.177c0.237,0.301,0.55,0.451,0.938,0.451h1.25
					c0.474,0,0.904-0.202,1.293-0.605c0.388-0.402,0.66-0.935,0.818-1.595v-6.138h2.931v10.87c0,0.908-0.184,1.709-0.55,2.397
					c-0.365,0.688-0.887,1.226-1.562,1.604c-0.675,0.383-1.451,0.572-2.327,0.572h-1.767C38.538,58.966,37.58,58.632,36.825,57.965z
					"/>
			</g>
		</g>
		<g>
			<path fill="#FFFFFF" d="M85,27c-0.483,0-0.875-0.392-0.875-0.875v-0.561c-0.077-0.48-0.634-3.064-3.563-3.064
				c-0.482,0-0.875-0.392-0.875-0.875s0.393-0.875,0.875-0.875c3.723,0,5.099,3.034,5.306,4.638l0.008,0.112v0.625
				C85.875,26.608,85.483,27,85,27z"/>
		</g>
		
			<line fill="none" stroke="#FFFFFF" stroke-width="2" stroke-linecap="round" stroke-miterlimit="10" x1="85" y1="30.333" x2="85" y2="30.333"/>
	</g>
</g>
</svg>
